<svg xmlns="http://www.w3.org/2000/svg" width="192" height="192" viewBox="0 0 192 192">
  <rect width="192" height="192" rx="32" fill="#0a0a0b"/>
  <g fill="none" stroke="#a5b4fc" stroke-width="3" stroke-linecap="round" stroke-linejoin="round">
    <path d="M96 40c-12 0-22 10-22 22v8c0 8 4 15 10 19l12 7 12-7c6-4 10-11 10-19v-8c0-12-10-22-22-22z"/>
    <path d="M74 70c-8 3-14 10-14 19 0 11 9 20 20 20h32"/>
    <path d="M118 70c8 3 14 10 14 19 0 11-9 20-20 20h-8"/>
    <path d="M96 109v16"/>
    <path d="M86 125h20v8H86z"/>
    <path d="M80 140c-6 0-10 4-10 10v2h52v-2c0-6-4-10-10-10H80z"/>
    <circle cx="96" cy="96" r="44" stroke-width="1.5" opacity="0.3"/>
  </g>
</svg>
